<svg width="70" height="70" viewBox="0 0 70 70" fill="none" xmlns="http://www.w3.org/2000/svg">
<path d="M10.4432 12.6585C8.38298 16.5639 6.91756 23.9125 17.5374 22.0637C21.5302 21.3686 26.2009 17.6889 25.814 11.3686C25.599 9.23679 23.5137 5.47829 16.8925 7.49907C14.2698 8.144 11.5001 11.2074 10.4432 12.6585Z" fill="white"/>
<path fill-rule="evenodd" clip-rule="evenodd" d="M31.7416 26.6359C32.8165 23.9666 36.8366 18.7678 44.3177 19.3267C47.0049 19.6671 52.7233 21.9709 54.0992 28.4632C56.1952 28.7499 62.107 30.269 68.9863 34.0526C68.9863 21.799 60.7655 11.924 56.5556 8.4127C52.3635 4.32816 39.7874 -2.45435 23.0193 3.09204C6.25114 8.63843 1.37834 26.1841 1.03796 34.2636C1.87893 33.909 2.67626 33.2979 3.79469 32.8719C11.039 30.1122 23.3987 26.2635 31.7416 26.6359ZM17.5374 22.0637C6.91756 23.9125 8.38298 16.5639 10.4432 12.6585C11.5001 11.2074 14.2698 8.144 16.8925 7.49907C23.5137 5.47829 25.599 9.23679 25.814 11.3686C26.2009 17.6889 21.5302 21.3686 17.5374 22.0637Z" fill="#D10909"/>
<path d="M1.03796 34.2636C0.835656 36.4564 1.49111 40.1934 1.84412 41.7878C4.16621 40.7995 6.31528 39.74 8.63166 39.0136C6.96559 38.2926 3.66571 36.0548 3.79469 32.8719C2.67626 33.2979 1.87893 33.909 1.03796 34.2636Z" fill="#363638"/>
<path d="M34.5743 60.222C20.7728 57.2123 14.2569 43.9605 12.8237 37.8162C11.447 38.1725 10.0453 38.5703 8.63166 39.0136C6.31528 39.74 4.16621 40.7995 1.84412 41.7878C2.81152 45.125 5.48797 52.5596 8.45464 55.6C20.4503 69.6582 36.7778 69.5908 43.442 67.7999C53.9846 65.1437 60.654 58.1174 64.4776 51.5692C56.6698 61.845 41.2888 61.6193 34.5743 60.222Z" fill="#A19E9E"/>
<path d="M68.2338 41.523C66.1916 40.4123 60.2582 37.9222 52.863 36.8473C51.5911 38.8717 47.5424 42.7806 41.523 42.2217C35.5037 41.6628 32.8523 37.1877 32.2791 35.02C28.7599 35.0075 21.2625 35.6323 12.8237 37.8162C14.2569 43.9605 20.7728 57.2123 34.5743 60.222C41.2888 61.6193 56.6698 61.845 64.4776 51.5692C66.6576 47.8359 67.7134 44.047 68.2338 41.523Z" fill="white"/>
<path fill-rule="evenodd" clip-rule="evenodd" d="M44.3177 19.3267C36.8366 18.7678 32.8165 23.9666 31.7416 26.6359C23.3987 26.2635 11.039 30.1122 3.79469 32.8719C3.66571 36.0548 6.96559 38.2926 8.63166 39.0136C10.0453 38.5703 11.447 38.1725 12.8237 37.8162C21.2625 35.6323 28.7599 35.0075 32.2791 35.02C32.8523 37.1877 35.5037 41.6628 41.523 42.2217C47.5424 42.7806 51.5911 38.8717 52.863 36.8473C60.2582 37.9222 66.1916 40.4123 68.2338 41.523C68.9648 38.6854 69.04 35.3604 68.9863 34.0526C62.107 30.269 56.1952 28.7499 54.0992 28.4632C52.7233 21.9709 47.0049 19.6671 44.3177 19.3267ZM50.982 30.398C50.982 36.2883 46.8974 38.5133 43.5116 38.5133C36.8903 38.5133 35.2887 33.5689 35.2887 30.398C35.2887 24.6308 40.3944 22.4976 43.5116 22.4976C46.0375 22.4976 50.982 24.5076 50.982 30.398Z" fill="#58585A"/>
<path d="M43.5116 38.5133C46.8974 38.5133 50.982 36.2883 50.982 30.398C50.982 24.5076 46.0375 22.4976 43.5116 22.4976C40.3944 22.4976 35.2887 24.6308 35.2887 30.398C35.2887 33.5689 36.8903 38.5133 43.5116 38.5133Z" fill="white"/>
<path d="M1.03796 34.2636C1.37834 26.1841 6.25114 8.63843 23.0193 3.09204C39.7874 -2.45435 52.3635 4.32816 56.5556 8.4127C60.7655 11.924 68.9863 21.799 68.9863 34.0526M1.03796 34.2636C0.835656 36.4564 1.49111 40.1934 1.84412 41.7878M1.03796 34.2636C1.87893 33.909 2.67626 33.2979 3.79469 32.8719M68.9863 34.0526C62.107 30.269 56.1952 28.7499 54.0992 28.4632C52.7233 21.9709 47.0049 19.6671 44.3177 19.3267C36.8366 18.7678 32.8165 23.9666 31.7416 26.6359C23.3987 26.2635 11.039 30.1122 3.79469 32.8719M68.9863 34.0526C69.04 35.3604 68.9648 38.6854 68.2338 41.523M68.2338 41.523C66.1916 40.4123 60.2582 37.9222 52.863 36.8473C51.5911 38.8717 47.5424 42.7806 41.523 42.2217C35.5037 41.6628 32.8523 37.1877 32.2791 35.02C28.7599 35.0075 21.2625 35.6323 12.8237 37.8162M68.2338 41.523C67.7134 44.047 66.6576 47.8359 64.4776 51.5692M1.84412 41.7878C2.81152 45.125 5.48797 52.5596 8.45464 55.6C20.4503 69.6582 36.7778 69.5908 43.442 67.7999C53.9846 65.1437 60.654 58.1174 64.4776 51.5692M1.84412 41.7878C4.16621 40.7995 6.31528 39.74 8.63166 39.0136M12.8237 37.8162C14.2569 43.9605 20.7728 57.2123 34.5743 60.222C41.2888 61.6193 56.6698 61.845 64.4776 51.5692M12.8237 37.8162C11.447 38.1725 10.0453 38.5703 8.63166 39.0136M8.63166 39.0136C6.96559 38.2926 3.66571 36.0548 3.79469 32.8719M10.4432 12.6585C8.38298 16.5639 6.91756 23.9125 17.5374 22.0637C21.5302 21.3686 26.2009 17.6889 25.814 11.3686C25.599 9.23679 23.5137 5.47829 16.8925 7.49907C14.2698 8.144 11.5001 11.2074 10.4432 12.6585ZM43.5116 38.5133C46.8974 38.5133 50.982 36.2883 50.982 30.398C50.982 24.5076 46.0375 22.4976 43.5116 22.4976C40.3944 22.4976 35.2887 24.6308 35.2887 30.398C35.2887 33.5689 36.8903 38.5133 43.5116 38.5133Z" stroke="black"/>
<path d="M38.7423 27.0787C38.8629 26.4055 39.9964 25.125 43.5661 25.3892C47.1358 25.6534 48.0162 27.1826 48.0101 27.9141C47.9144 28.5776 46.8162 29.8372 43.1895 29.5679C39.5627 29.2986 38.7135 27.7962 38.7423 27.0787Z" stroke="black" stroke-width="0.5"/>
<path d="M38.6715 27.8644L38.5234 29.5073C38.6068 30.0429 39.6183 31.2335 42.9963 31.7108C44.2785 31.8384 47.0338 31.7291 47.7976 30.2713L47.9393 28.6999C47.621 29.3073 46.2158 30.4384 43.1412 30.1036C40.0666 29.7689 38.8803 28.4714 38.6715 27.8644Z" stroke="black" stroke-width="0.5"/>
<path d="M38.4783 30.0074L38.3398 31.5431C38.4396 32.1642 39.4719 33.4958 42.8031 33.8537C46.1344 34.2116 47.3942 33.0194 47.6077 32.3785L47.7461 30.8428C47.3922 31.447 45.9364 32.5807 42.9448 32.2823C39.9531 31.9838 38.7206 30.6413 38.4783 30.0074Z" stroke="black" stroke-width="0.5"/>
<path d="M38.2883 32.1146L38.1402 33.7575C38.3567 34.4131 39.5536 35.7787 42.61 35.9966C45.6664 36.2145 47.0822 35.1516 47.4081 34.5929L47.5562 32.95C47.3189 33.5887 46.0259 34.7779 42.7516 34.4252C39.4774 34.0724 38.4118 32.7378 38.2883 32.1146Z" stroke="black" stroke-width="0.5"/>
</svg>
